<?xml version="1.0" standalone="no"?>
<!DOCTYPE svg PUBLIC "-//W3C//DTD SVG 20010904//EN"
 "http://www.w3.org/TR/2001/REC-SVG-20010904/DTD/svg10.dtd">
<svg version="1.0" xmlns="http://www.w3.org/2000/svg"
 width="225.000000pt" height="225.000000pt" viewBox="0 0 225.000000 225.000000"
 preserveAspectRatio="xMidYMid meet">

<g transform="translate(0.000000,225.000000) scale(0.100000,-0.100000)"
fill="#000000" stroke="none">
<path d="M0 1125 l0 -1125 1125 0 1125 0 0 1125 0 1125 -1125 0 -1125 0 0
-1125z m1371 575 c172 -33 308 -165 339 -331 14 -71 13 -416 -1 -481 -17 -81
-61 -157 -123 -216 -65 -62 -135 -96 -227 -112 -64 -11 -69 -14 -140 -86 -40
-41 -80 -74 -89 -74 -8 0 -54 35 -101 79 -79 72 -90 78 -139 84 -125 15 -250
109 -312 234 l-33 68 0 265 0 266 38 76 c57 117 153 193 282 224 62 15 431 18
506 4z"/>
<path d="M687 1283 c-4 -3 -7 -80 -7 -170 l0 -163 110 0 110 0 0 30 0 30 -70
0 -70 0 0 40 0 40 60 0 60 0 0 30 0 30 -60 0 -60 0 0 35 0 35 65 0 65 0 0 35
0 35 -98 0 c-54 0 -102 -3 -105 -7z"/>
<path d="M973 1284 c-23 -5 -23 -7 -23 -168 l0 -163 44 -5 c24 -3 67 -2 96 3
107 17 155 71 155 176 0 69 -19 104 -73 136 -32 19 -153 31 -199 21z m147 -69
c40 -21 58 -79 41 -135 -14 -47 -47 -72 -99 -74 l-37 -1 -3 99 c-1 55 0 106 2
113 7 18 60 17 96 -2z"/>
<path d="M1300 1168 c0 -97 4 -130 18 -158 45 -91 195 -89 240 3 8 17 14 71
14 150 l2 122 -37 3 -37 3 0 -119 c0 -106 -2 -122 -21 -146 -24 -31 -48 -33
-80 -7 -21 17 -23 27 -27 145 l-4 126 -34 0 -34 0 0 -122z"/>
</g>
</svg>
